<svg xmlns="http://www.w3.org/2000/svg" xmlns:xlink="http://www.w3.org/1999/xlink" width="400" zoomAndPan="magnify" viewBox="0 0 300 149.999998" height="200" preserveAspectRatio="xMidYMid meet" version="1.0"><defs><g/><clipPath id="153510c643"><path d="M 32 38.085938 L 72 38.085938 L 72 111.925781 L 32 111.925781 Z M 32 38.085938 " clip-rule="nonzero"/></clipPath><clipPath id="53606773dd"><path d="M 77 82 L 86.667969 82 L 86.667969 88 L 77 88 Z M 77 82 " clip-rule="nonzero"/></clipPath><clipPath id="d9e1abd4c9"><path d="M 16.347656 83 L 28 83 L 28 89 L 16.347656 89 Z M 16.347656 83 " clip-rule="nonzero"/></clipPath><clipPath id="7e18874df0"><path d="M 77 61 L 86.667969 61 L 86.667969 67 L 77 67 Z M 77 61 " clip-rule="nonzero"/></clipPath><clipPath id="8021e61a07"><path d="M 16.347656 62 L 28 62 L 28 68 L 16.347656 68 Z M 16.347656 62 " clip-rule="nonzero"/></clipPath><clipPath id="1447f12fb5"><path d="M 77 102 L 86.667969 102 L 86.667969 108 L 77 108 Z M 77 102 " clip-rule="nonzero"/></clipPath><clipPath id="936b113fc6"><path d="M 16.347656 103 L 28 103 L 28 109 L 16.347656 109 Z M 16.347656 103 " clip-rule="nonzero"/></clipPath><clipPath id="23a3d73f67"><path d="M 77 41 L 86.667969 41 L 86.667969 47 L 77 47 Z M 77 41 " clip-rule="nonzero"/></clipPath><clipPath id="c2f4f4c927"><path d="M 16.347656 42 L 28 42 L 28 47 L 16.347656 47 Z M 16.347656 42 " clip-rule="nonzero"/></clipPath></defs><g clip-path="url(#153510c643)"><path fill="#0479ac" d="M 71.121094 39.875 L 71.121094 110.125 C 71.121094 111.109375 70.320312 111.914062 69.335938 111.914062 L 34.566406 111.914062 C 33.582031 111.914062 32.78125 111.109375 32.78125 110.125 L 32.78125 39.875 C 32.78125 38.890625 33.582031 38.085938 34.566406 38.085938 L 69.335938 38.085938 C 70.320312 38.085938 71.121094 38.890625 71.121094 39.875 Z M 71.121094 39.875 " fill-opacity="1" fill-rule="nonzero"/></g><path fill="#3dd0ff" d="M 67.378906 43.972656 L 67.378906 105.835938 C 67.378906 106.820312 66.574219 107.621094 65.589844 107.621094 L 38.128906 107.621094 C 37.144531 107.621094 36.34375 106.820312 36.34375 105.835938 L 36.34375 43.972656 C 36.34375 42.988281 37.144531 42.183594 38.128906 42.183594 L 65.589844 42.183594 C 66.574219 42.183594 67.378906 42.988281 67.378906 43.972656 Z M 67.378906 43.972656 " fill-opacity="1" fill-rule="nonzero"/><path fill="#000000" d="M 51.867188 49.148438 L 60.167969 49.148438 L 60.167969 52.46875 C 60.167969 53.074219 60.085938 53.585938 59.902344 54 C 59.71875 54.414062 59.464844 54.71875 59.148438 54.925781 C 58.832031 55.128906 58.46875 55.226562 58.042969 55.226562 C 57.714844 55.226562 57.433594 55.167969 57.191406 55.035156 C 56.949219 54.898438 56.753906 54.730469 56.59375 54.5 C 56.4375 54.28125 56.328125 54.011719 56.265625 53.734375 L 56.183594 53.734375 C 56.171875 54.046875 56.085938 54.339844 55.914062 54.621094 C 55.746094 54.898438 55.511719 55.117188 55.222656 55.300781 C 54.929688 55.472656 54.578125 55.554688 54.164062 55.554688 C 53.726562 55.554688 53.324219 55.445312 52.984375 55.226562 C 52.644531 55.007812 52.363281 54.691406 52.171875 54.265625 C 51.976562 53.84375 51.867188 53.320312 51.867188 52.699219 Z M 53.300781 50.898438 L 53.300781 52.335938 C 53.300781 52.820312 53.398438 53.183594 53.582031 53.40625 C 53.773438 53.625 54.019531 53.746094 54.335938 53.746094 C 54.566406 53.746094 54.773438 53.683594 54.941406 53.574219 C 55.113281 53.464844 55.257812 53.308594 55.355469 53.101562 C 55.453125 52.894531 55.5 52.652344 55.5 52.371094 L 55.5 50.898438 Z M 56.691406 50.898438 L 56.691406 52.199219 C 56.691406 52.445312 56.730469 52.652344 56.8125 52.84375 C 56.898438 53.039062 57.019531 53.183594 57.179688 53.292969 C 57.335938 53.40625 57.519531 53.464844 57.738281 53.464844 C 58.042969 53.464844 58.285156 53.355469 58.46875 53.148438 C 58.648438 52.941406 58.746094 52.636719 58.746094 52.25 L 58.746094 50.914062 L 56.691406 50.914062 Z M 60.167969 59.25 L 51.867188 59.25 L 51.867188 57.5 L 60.167969 57.5 Z M 56.011719 69.109375 C 55.113281 69.109375 54.335938 68.941406 53.703125 68.601562 C 53.070312 68.257812 52.582031 67.796875 52.242188 67.203125 C 51.914062 66.617188 51.746094 65.960938 51.746094 65.21875 C 51.746094 64.480469 51.914062 63.824219 52.242188 63.238281 C 52.582031 62.65625 53.058594 62.191406 53.703125 61.851562 C 54.335938 61.511719 55.101562 61.34375 56.011719 61.34375 C 56.910156 61.34375 57.691406 61.511719 58.320312 61.851562 C 58.953125 62.191406 59.441406 62.65625 59.769531 63.238281 C 60.109375 63.824219 60.265625 64.492188 60.265625 65.21875 C 60.265625 65.949219 60.097656 66.605469 59.769531 67.203125 C 59.441406 67.785156 58.953125 68.257812 58.320312 68.601562 C 57.691406 68.941406 56.921875 69.109375 56.011719 69.109375 Z M 56.011719 67.335938 C 56.59375 67.335938 57.09375 67.25 57.496094 67.066406 C 57.894531 66.898438 58.199219 66.65625 58.40625 66.339844 C 58.613281 66.023438 58.722656 65.65625 58.722656 65.230469 C 58.722656 64.808594 58.613281 64.441406 58.40625 64.125 C 58.199219 63.808594 57.894531 63.566406 57.496094 63.382812 C 57.09375 63.214844 56.59375 63.128906 56.011719 63.128906 C 55.429688 63.128906 54.929688 63.214844 54.527344 63.382812 C 54.128906 63.554688 53.824219 63.808594 53.617188 64.125 C 53.410156 64.441406 53.300781 64.808594 53.300781 65.230469 C 53.300781 65.65625 53.410156 66.023438 53.617188 66.339844 C 53.824219 66.65625 54.128906 66.898438 54.527344 67.066406 C 54.929688 67.25 55.429688 67.335938 56.011719 67.335938 Z M 57.773438 75.710938 C 58.101562 75.675781 58.359375 75.539062 58.539062 75.296875 C 58.722656 75.054688 58.808594 74.714844 58.808594 74.300781 C 58.808594 74.007812 58.769531 73.777344 58.6875 73.570312 C 58.613281 73.378906 58.503906 73.21875 58.359375 73.121094 C 58.210938 73.023438 58.054688 72.964844 57.882812 72.964844 C 57.738281 72.964844 57.605469 72.988281 57.496094 73.0625 C 57.386719 73.132812 57.289062 73.230469 57.203125 73.351562 C 57.128906 73.472656 57.058594 73.621094 56.996094 73.777344 C 56.9375 73.9375 56.886719 74.105469 56.851562 74.289062 L 56.667969 75.03125 C 56.582031 75.394531 56.472656 75.722656 56.339844 76.027344 C 56.207031 76.332031 56.035156 76.585938 55.839844 76.816406 C 55.648438 77.035156 55.417969 77.207031 55.148438 77.328125 C 54.882812 77.449219 54.578125 77.511719 54.226562 77.523438 C 53.714844 77.523438 53.277344 77.390625 52.898438 77.132812 C 52.535156 76.878906 52.242188 76.511719 52.035156 76.027344 C 51.832031 75.554688 51.734375 74.96875 51.734375 74.300781 C 51.734375 73.632812 51.832031 73.050781 52.035156 72.550781 C 52.242188 72.050781 52.546875 71.675781 52.949219 71.394531 C 53.351562 71.117188 53.859375 70.96875 54.457031 70.957031 L 54.457031 72.660156 C 54.175781 72.683594 53.945312 72.757812 53.761719 72.902344 C 53.582031 73.050781 53.433594 73.230469 53.351562 73.472656 C 53.253906 73.71875 53.214844 73.984375 53.214844 74.289062 C 53.214844 74.582031 53.265625 74.847656 53.351562 75.066406 C 53.433594 75.285156 53.554688 75.457031 53.714844 75.578125 C 53.871094 75.699219 54.042969 75.761719 54.25 75.761719 C 54.429688 75.761719 54.589844 75.699219 54.722656 75.589844 C 54.84375 75.480469 54.953125 75.320312 55.050781 75.117188 C 55.136719 74.910156 55.222656 74.652344 55.292969 74.351562 L 55.527344 73.449219 C 55.695312 72.746094 55.964844 72.199219 56.328125 71.796875 C 56.691406 71.394531 57.179688 71.1875 57.785156 71.1875 C 58.285156 71.1875 58.722656 71.324219 59.097656 71.589844 C 59.476562 71.859375 59.769531 72.234375 59.976562 72.707031 C 60.179688 73.183594 60.289062 73.730469 60.289062 74.324219 C 60.289062 74.945312 60.179688 75.480469 59.976562 75.941406 C 59.769531 76.402344 59.476562 76.769531 59.097656 77.023438 C 58.722656 77.28125 58.285156 77.414062 57.800781 77.425781 L 57.800781 75.710938 Z M 57.773438 75.710938 " fill-opacity="1" fill-rule="nonzero"/><g clip-path="url(#53606773dd)"><path fill="#000000" d="M 86.632812 82.480469 L 77.359375 82.480469 L 77.359375 87.476562 L 86.632812 87.476562 " fill-opacity="1" fill-rule="nonzero"/></g><g clip-path="url(#d9e1abd4c9)"><path fill="#000000" d="M 27.261719 83.015625 L 16.382812 83.015625 L 16.382812 88.011719 L 27.261719 88.011719 " fill-opacity="1" fill-rule="nonzero"/></g><g clip-path="url(#7e18874df0)"><path fill="#000000" d="M 86.632812 61.972656 L 77.359375 61.972656 L 77.359375 66.972656 L 86.632812 66.972656 " fill-opacity="1" fill-rule="nonzero"/></g><g clip-path="url(#8021e61a07)"><path fill="#000000" d="M 27.261719 62.507812 L 16.382812 62.507812 L 16.382812 67.503906 L 27.261719 67.503906 " fill-opacity="1" fill-rule="nonzero"/></g><g clip-path="url(#1447f12fb5)"><path fill="#000000" d="M 86.632812 102.988281 L 77.359375 102.988281 L 77.359375 107.984375 L 86.632812 107.984375 " fill-opacity="1" fill-rule="nonzero"/></g><g clip-path="url(#936b113fc6)"><path fill="#000000" d="M 27.261719 103.523438 L 16.382812 103.523438 L 16.382812 108.519531 L 27.261719 108.519531 " fill-opacity="1" fill-rule="nonzero"/></g><g clip-path="url(#23a3d73f67)"><path fill="#000000" d="M 86.632812 41.480469 L 77.359375 41.480469 L 77.359375 46.464844 L 86.632812 46.464844 " fill-opacity="1" fill-rule="nonzero"/></g><g clip-path="url(#c2f4f4c927)"><path fill="#000000" d="M 27.261719 42.015625 L 16.382812 42.015625 L 16.382812 46.996094 L 27.261719 46.996094 " fill-opacity="1" fill-rule="nonzero"/></g><g fill="#000000" fill-opacity="1"><g transform="translate(100.25156, 101.220864)"><g><path d="M 6.921875 0 L 6.921875 -53.234375 L 29.640625 -53.234375 C 32.921875 -53.234375 35.695312 -52.71875 37.96875 -51.6875 C 40.238281 -50.65625 41.953125 -49.1875 43.109375 -47.28125 C 44.273438 -45.375 44.859375 -43.125 44.859375 -40.53125 C 44.859375 -38.175781 44.285156 -36.097656 43.140625 -34.296875 C 42.003906 -32.503906 40.367188 -31.0625 38.234375 -29.96875 L 38.234375 -29.203125 C 41.585938 -28.328125 44.171875 -26.734375 45.984375 -24.421875 C 47.804688 -22.117188 48.71875 -19.296875 48.71875 -15.953125 C 48.71875 -10.847656 47.179688 -6.910156 44.109375 -4.140625 C 41.046875 -1.378906 36.488281 0 30.4375 0 Z M 27.453125 -32.015625 C 32.359375 -32.015625 34.8125 -34.222656 34.8125 -38.640625 C 34.8125 -40.890625 34.203125 -42.566406 32.984375 -43.671875 C 31.773438 -44.785156 29.929688 -45.34375 27.453125 -45.34375 L 17.4375 -45.34375 L 17.4375 -32.015625 Z M 29.390625 -8.34375 C 35.191406 -8.34375 38.09375 -10.972656 38.09375 -16.234375 C 38.09375 -21.523438 35.191406 -24.171875 29.390625 -24.171875 L 17.4375 -24.171875 L 17.4375 -8.34375 Z M 29.390625 -8.34375 "/></g></g></g><g fill="#000000" fill-opacity="1"><g transform="translate(152.316394, 101.220864)"><g><path d="M 17.4375 0 L 6.921875 0 L 6.921875 -53.234375 L 17.4375 -53.234375 Z M 17.4375 0 "/></g></g></g><g fill="#000000" fill-opacity="1"><g transform="translate(176.710408, 101.220864)"><g><path d="M 29.015625 0.765625 C 24.140625 0.765625 19.835938 -0.226562 16.109375 -2.21875 C 12.390625 -4.207031 9.472656 -7.25 7.359375 -11.34375 C 5.242188 -15.4375 4.1875 -20.53125 4.1875 -26.625 C 4.1875 -32.71875 5.242188 -37.804688 7.359375 -41.890625 C 9.472656 -45.984375 12.390625 -49.023438 16.109375 -51.015625 C 19.835938 -53.003906 24.140625 -54 29.015625 -54 C 33.898438 -54 38.195312 -53.007812 41.90625 -51.03125 C 45.625 -49.050781 48.53125 -46.007812 50.625 -41.90625 C 52.726562 -37.8125 53.78125 -32.71875 53.78125 -26.625 C 53.78125 -20.53125 52.726562 -15.429688 50.625 -11.328125 C 48.53125 -7.222656 45.625 -4.179688 41.90625 -2.203125 C 38.195312 -0.222656 33.898438 0.765625 29.015625 0.765625 Z M 29.015625 -8.375 C 33.535156 -8.375 36.984375 -9.820312 39.359375 -12.71875 C 41.742188 -15.625 42.9375 -20.257812 42.9375 -26.625 C 42.9375 -32.976562 41.742188 -37.613281 39.359375 -40.53125 C 36.984375 -43.445312 33.535156 -44.90625 29.015625 -44.90625 C 24.484375 -44.90625 21.019531 -43.445312 18.625 -40.53125 C 16.238281 -37.613281 15.046875 -32.976562 15.046875 -26.625 C 15.046875 -20.257812 16.238281 -15.625 18.625 -12.71875 C 21.019531 -9.820312 24.484375 -8.375 29.015625 -8.375 Z M 29.015625 -8.375 "/></g></g></g><g fill="#000000" fill-opacity="1"><g transform="translate(234.709932, 101.220864)"><g><path d="M 23.59375 0.765625 C 19.90625 0.765625 16.625 0.3125 13.75 -0.59375 C 10.875 -1.507812 8.472656 -2.707031 6.546875 -4.1875 C 4.628906 -5.664062 3.164062 -7.289062 2.15625 -9.0625 L 7.9375 -16.125 L 8.84375 -16.125 C 10.445312 -13.75 12.476562 -11.859375 14.9375 -10.453125 C 17.40625 -9.046875 20.289062 -8.34375 23.59375 -8.34375 C 26.414062 -8.34375 28.539062 -8.9375 29.96875 -10.125 C 31.40625 -11.3125 32.125 -12.953125 32.125 -15.046875 C 32.125 -16.304688 31.890625 -17.359375 31.421875 -18.203125 C 30.960938 -19.054688 30.195312 -19.785156 29.125 -20.390625 C 28.0625 -20.992188 26.617188 -21.515625 24.796875 -21.953125 L 17.953125 -23.53125 C 13.171875 -24.613281 9.609375 -26.425781 7.265625 -28.96875 C 4.921875 -31.507812 3.75 -34.804688 3.75 -38.859375 C 3.75 -41.867188 4.5 -44.515625 6 -46.796875 C 7.507812 -49.078125 9.703125 -50.847656 12.578125 -52.109375 C 15.453125 -53.367188 18.894531 -54 22.90625 -54 C 27.007812 -54 30.519531 -53.457031 33.4375 -52.375 C 36.363281 -51.300781 38.835938 -49.644531 40.859375 -47.40625 L 35.65625 -40.28125 L 34.734375 -40.28125 C 33.234375 -41.851562 31.507812 -43.035156 29.5625 -43.828125 C 27.625 -44.617188 25.40625 -45.015625 22.90625 -45.015625 C 20.019531 -45.015625 17.820312 -44.503906 16.3125 -43.484375 C 14.8125 -42.460938 14.0625 -41.050781 14.0625 -39.25 C 14.0625 -37.582031 14.585938 -36.25 15.640625 -35.25 C 16.691406 -34.25 18.519531 -33.472656 21.125 -32.921875 L 28.109375 -31.46875 C 33.285156 -30.375 37.035156 -28.519531 39.359375 -25.90625 C 41.691406 -23.300781 42.859375 -19.894531 42.859375 -15.6875 C 42.859375 -12.363281 42.140625 -9.46875 40.703125 -7 C 39.273438 -4.539062 37.113281 -2.628906 34.21875 -1.265625 C 31.332031 0.0859375 27.789062 0.765625 23.59375 0.765625 Z M 23.59375 0.765625 "/></g></g></g></svg>